<svg xmlns="http://www.w3.org/2000/svg" version="1.1" width="250" height="250">
<path d="M0 0 C1.20301254 -0.00845947 2.40602509 -0.01691895 3.64549255 -0.02563477 C4.98050062 -0.01980172 6.31550735 -0.0136572 7.6505127 -0.00723267 C9.05494088 -0.01129727 10.45936587 -0.01663853 11.86378479 -0.02316284 C15.67988211 -0.03685563 19.4957365 -0.03152982 23.31183815 -0.02202559 C27.30229988 -0.0144391 31.29274059 -0.02147178 35.28320312 -0.02618408 C41.98494203 -0.03164459 48.6865818 -0.02444231 55.38830566 -0.01016235 C63.14039348 0.00616478 70.89224461 0.00087647 78.64432669 -0.01564157 C85.29577968 -0.02924806 91.94716134 -0.03118022 98.59862375 -0.02332556 C102.57314847 -0.01864441 106.54756187 -0.01803625 110.52207947 -0.02793503 C114.25841306 -0.0365903 117.99444099 -0.03060947 121.7307415 -0.01325226 C123.10337758 -0.00927966 124.47603931 -0.01043467 125.84866524 -0.01704025 C127.7194948 -0.02521446 129.59038047 -0.0131553 131.46118164 0 C133.03298565 0.00169662 133.03298565 0.00169662 134.63654327 0.00342751 C137.23059082 0.38095093 137.23059082 0.38095093 139.02696991 1.68820763 C141.07053174 4.56222349 141.50802217 7.91838763 142.16809082 11.31845093 C142.33212402 12.13096313 142.49615723 12.94347534 142.66516113 13.78060913 C144.16710838 21.50623247 145.34479196 29.28178864 146.48059082 37.06845093 C146.65582275 38.26139771 146.83105469 39.45434448 147.01159668 40.68344116 C148.65518359 52.4154225 148.65518359 52.4154225 148.23059082 58.38095093 C145.81224389 60.79929786 144.94779155 60.78306668 141.60559082 60.94345093 C135.22813517 60.81535282 132.51939952 57.72920846 128.23059082 53.38095093 C115.98681549 42.30665901 101.15397407 37.86114368 84.89855957 38.12704468 C74.95004466 38.81570652 64.92513182 40.30577147 57.91809082 47.88095093 C53.23808958 57.58762016 52.85897394 69.19751944 56.18371582 79.33798218 C57.55945091 82.02271893 58.85308401 83.49221596 61.23059082 85.38095093 C64.64579539 85.92712361 64.64579539 85.92712361 68.48840332 85.77938843 C69.93371743 85.7841292 71.37903002 85.78935339 72.82434082 85.79501343 C75.08211437 85.78036524 77.33925769 85.75620713 79.59680176 85.72079468 C89.28910796 85.60139979 96.30048376 86.21784686 104.23059082 92.38095093 C105.27473145 93.03579468 106.31887207 93.69063843 107.39465332 94.36532593 C113.6720853 98.86913427 113.6720853 98.86913427 115.13684082 102.83407593 C115.47605631 106.7835134 114.97533003 109.31487755 112.69152832 112.58407593 C110.65166443 114.71333624 108.54216446 116.55128163 106.23059082 118.38095093 C105.49066895 118.97263062 104.75074707 119.5643103 103.98840332 120.17391968 C98.56875651 124.35280486 95.43804429 125.51797517 88.55480957 125.55673218 C86.98904098 125.5799348 85.42328574 125.60405232 83.85754395 125.6289978 C81.38878512 125.66408004 78.92051559 125.69343773 76.45153809 125.70687866 C74.06869158 125.72239043 71.68727617 125.76262143 69.30480957 125.80673218 C68.20455696 125.80386955 68.20455696 125.80386955 67.08207703 125.8009491 C62.19141964 125.91717953 59.67080847 126.9065993 56.23059082 130.38095093 C51.31736121 138.84914532 52.64660247 149.77020563 54.55090332 158.93954468 C56.1640495 164.73389159 59.47612275 168.32101171 64.56262207 171.27938843 C80.55925017 177.88414556 98.40399776 176.27573381 114.10949707 169.86532593 C123.02398195 165.62564601 129.01261048 160.77285749 132.85559082 151.56845093 C134.23059082 148.38095093 134.23059082 148.38095093 136.23059082 147.38095093 C142.57078584 146.91984584 142.57078584 146.91984584 144.92980957 148.56845093 C151.08624903 157.146793 144.31600506 179.69301196 142.7442627 189.37753296 C142.26064127 192.23706318 141.75320494 195.09080674 141.23059082 197.94345093 C141.00000977 199.23605835 141.00000977 199.23605835 140.76477051 200.55477905 C140.60911621 201.36495483 140.45346191 202.17513062 140.29309082 203.00985718 C140.16031738 203.71183228 140.02754395 204.41380737 139.89074707 205.13705444 C139.02415156 208.08264591 137.65624306 210.66924966 136.23059082 213.38095093 C100.89460362 214.26605726 65.57631108 214.47208544 30.23059082 214.44345093 C28.63438086 214.4421669 28.63438086 214.4421669 27.00592422 214.44085693 C13.74746314 214.42940478 0.48902628 214.4092398 -12.76940918 214.38095093 C-14.94917157 210.34927659 -15.89994336 206.89555074 -14.76940918 202.38095093 C-12.96064346 199.43634891 -10.93450503 196.77219561 -8.80847168 194.04891968 C2.59861286 179.1235581 0.37886701 158.5283125 0.54699707 140.71298218 C0.56768065 138.82525804 0.58867895 136.93753733 0.60997009 135.04981995 C0.65364671 131.10056753 0.6945663 127.15130001 0.73327637 123.20199585 C0.7818073 118.25765594 0.83561612 113.31339232 0.89119911 108.36912727 C0.99870736 98.78457672 1.09028479 89.20004518 1.16225624 79.61515999 C1.20370169 74.21404392 1.2606741 68.81342216 1.33147907 63.41261387 C1.37203037 60.09835795 1.39983018 56.78408114 1.42429924 53.46967125 C1.43814372 51.94539302 1.45720136 50.42115114 1.48205757 48.89701271 C1.6506131 38.32084393 0.6332116 29.42231786 -4.33190918 19.94345093 C-4.74569824 19.14036499 -5.1594873 18.33727905 -5.58581543 17.50985718 C-6.83621783 15.19352381 -6.83621783 15.19352381 -8.76940918 12.38095093 C-9.07019043 10.22470093 -9.07019043 10.22470093 -9.08190918 7.88095093 C-9.09866699 7.10751343 -9.1154248 6.33407593 -9.13269043 5.53720093 C-8.24904331 0.29232769 -4.71661303 0.00509114 0 0 Z " fill="#E3C8A0" transform="translate(61.7694091796875,17.619049072265625)"/>
<path d="M0 0 C0.75411919 0.01281384 1.50823837 0.02562767 2.28520966 0.0388298 C11.66957778 0.19956291 21.05363756 0.37440791 30.4375 0.5625 C28.6640625 4.4765625 28.6640625 4.4765625 26.625 5.25 C25.903125 5.353125 25.18125 5.45625 24.4375 5.5625 C23.53 5.748125 22.6225 5.93375 21.6875 6.125 C20.945 6.269375 20.2025 6.41375 19.4375 6.5625 C19.46843173 8.97835574 19.46843173 8.97835574 20.4375 11.5625 C22.42857248 12.58015927 24.42968823 13.57827854 26.4375 14.5625 C30.4375 19.72039474 30.4375 19.72039474 30.4375 22.5625 C29.550625 22.294375 28.66375 22.02625 27.75 21.75 C26.31400947 21.3487252 24.87624081 20.95379932 23.4375 20.5625 C22.52613281 20.30984375 21.61476563 20.0571875 20.67578125 19.796875 C3.32953844 15.3569333 -18.54319183 14.06282586 -35.10546875 22.03125 C-42.10936745 26.39615984 -44.96909955 31.5788688 -46.97143555 39.41455078 C-48.01978007 44.99792721 -47.99439565 50.52322217 -47.9375 56.1875 C-47.94910156 57.35023437 -47.96070313 58.51296875 -47.97265625 59.7109375 C-47.99524912 70.68344898 -47.99524912 70.68344898 -43.1105957 80.17822266 C-38.35547593 84.26516052 -34.89657363 84.74510463 -28.8515625 84.95703125 C-27.28121151 85.02581956 -25.71089979 85.09550928 -24.140625 85.16601562 C-21.663262 85.273332 -19.18620349 85.37504506 -16.70800781 85.46118164 C-14.31727902 85.54670093 -11.92861191 85.65617153 -9.5390625 85.76953125 C-8.43106796 85.79947929 -8.43106796 85.79947929 -7.3006897 85.83003235 C-3.72666694 86.01807193 -1.86989952 86.31033868 0.93603516 88.61206055 C1.43151855 89.25570557 1.92700195 89.89935059 2.4375 90.5625 C0.4575 91.2225 -1.5225 91.8825 -3.5625 92.5625 C-3.94468767 94.21864657 -4.27645102 95.88707024 -4.5625 97.5625 C-2.59427114 99.53072886 0.78558709 99.22498381 3.4375 99.5625 C0.99427048 102.78573145 -0.23155363 103.51308599 -4.30200195 104.12084961 C-5.80111239 104.17013471 -7.30093106 104.2003345 -8.80078125 104.21484375 C-10.44206182 104.27004787 -12.08333772 104.32539079 -13.72460938 104.38085938 C-16.29832818 104.44435049 -18.87204121 104.49994184 -21.44604492 104.55053711 C-23.94029532 104.6063053 -26.43243667 104.69080593 -28.92578125 104.77734375 C-30.06676018 104.78543312 -30.06676018 104.78543312 -31.23078918 104.79368591 C-36.87506592 105.00129751 -40.48198447 106.62571097 -44.5625 110.5625 C-49.50579443 117.57117026 -49.13716981 126.21616134 -49 134.4375 C-49.00708984 135.62730469 -49.01417969 136.81710938 -49.02148438 138.04296875 C-48.95343512 147.62221058 -48.57240352 158.83781272 -41.5078125 166.09765625 C-36.56166633 169.82216391 -30.58966098 172.23256307 -24.5625 173.5625 C-24.5625 174.2225 -24.5625 174.8825 -24.5625 175.5625 C-19.85268051 175.66299676 -15.14351385 175.7347162 -10.43286133 175.78222656 C-8.83769838 175.80207606 -7.24260549 175.82916504 -5.64770508 175.86425781 C5.47485061 176.10247318 14.81390051 174.94901359 25.4375 171.5625 C26.76754838 171.21629168 28.09938594 170.87609155 29.4375 170.5625 C25.82971586 175.48220564 23.19084215 177.53190865 17.4375 179.5625 C17.4375 181.5425 17.4375 183.5225 17.4375 185.5625 C18.07558594 185.82804688 18.71367187 186.09359375 19.37109375 186.3671875 C20.61052734 186.89699219 20.61052734 186.89699219 21.875 187.4375 C23.11056641 187.95957031 23.11056641 187.95957031 24.37109375 188.4921875 C26.4375 189.5625 26.4375 189.5625 27.4375 191.5625 C-7.90082109 192.41418955 -43.21439901 192.698824 -78.5625 192.5625 C-78.5625 191.9025 -78.5625 191.2425 -78.5625 190.5625 C-77.5725 190.5625 -76.5825 190.5625 -75.5625 190.5625 C-75.18186779 188.2364143 -74.84980055 185.90194736 -74.5625 183.5625 C-75.65319279 182.25841241 -75.65319279 182.25841241 -78.3125 182.3125 C-81.89607037 182.58815926 -83.66108004 183.51443885 -86.5625 185.5625 C-86.01327432 183.21270595 -85.362722 180.94795578 -84.61593628 178.65074158 C-81.16678161 167.40587931 -80.89802168 156.63939264 -80.8203125 144.94140625 C-80.79281149 142.83547765 -80.7639811 140.72956605 -80.73391724 138.62367249 C-80.64659113 131.93674042 -80.60140556 125.24986413 -80.5625 118.5625 C-80.5552037 117.46319908 -80.54790741 116.36389816 -80.54039001 115.2312851 C-80.43789234 99.77233469 -80.41962769 84.31408871 -80.43554688 68.8548584 C-80.43820513 64.28880841 -80.43328596 59.72277707 -80.42855644 55.1567297 C-80.42495161 50.71380766 -80.42608661 46.27089668 -80.42868423 41.82797432 C-80.42934639 39.7320715 -80.42855027 37.63616765 -80.42620468 35.54026604 C-80.42366394 32.6491308 -80.4275323 29.75807282 -80.43310547 26.86694336 C-80.43108124 26.02309586 -80.42905701 25.17924835 -80.42697144 24.30982971 C-80.44369799 19.62322813 -80.7832682 15.18560845 -81.5625 10.5625 C-79.51171875 10.85546875 -77.4609375 11.1484375 -75.41015625 11.44140625 C-74.49556641 11.50134766 -74.49556641 11.50134766 -73.5625 11.5625 C-72.25503291 10.46326459 -72.25503291 10.46326459 -72.25 7.75 C-72.63034477 3.87048332 -73.76383448 3.10724321 -76.5625 0.5625 C-51.02497512 -0.44972798 -25.54732233 -0.4344286 0 0 Z " fill="#232221" transform="translate(153.5625,28.4375)"/>
<path d="M0 0 C2.36328125 0.29296875 2.36328125 0.29296875 5 1 C6.98236861 4.00187246 8.52682915 6.78231388 9.82421875 10.12109375 C11.40469107 12.64669903 12.80013688 12.94289625 15.625 13.75 C16.44226563 13.99234375 17.25953125 14.2346875 18.1015625 14.484375 C18.72804688 14.65453125 19.35453125 14.8246875 20 15 C19.67 16.65 19.34 18.3 19 20 C17.948125 20.20625 16.89625 20.4125 15.8125 20.625 C11.3017877 21.90333952 9.65403454 24.20852209 7 28 C6.649375 28.763125 6.29875 29.52625 5.9375 30.3125 C5 32 5 32 2.9375 32.8125 C2.298125 32.874375 1.65875 32.93625 1 33 C0 32 0 32 -0.11352539 28.94897461 C-0.11336634 27.60008729 -0.10767612 26.25119386 -0.09765625 24.90234375 C-0.0962413 24.19348526 -0.09482635 23.48462677 -0.09336853 22.75428772 C-0.08775443 20.48198288 -0.07519963 18.20977525 -0.0625 15.9375 C-0.05748681 14.40039204 -0.05292359 12.86328255 -0.04882812 11.32617188 C-0.03778042 7.55074358 -0.02050641 3.77538829 0 0 Z " fill="#D7BE98" transform="translate(88,106)"/>
<path d="M0 0 C0.33 0 0.66 0 1 0 C1.36463732 1.74784829 1.7163078 3.49840502 2.0625 5.25 C2.25972656 6.22453125 2.45695313 7.1990625 2.66015625 8.203125 C3 11 3 11 2 15 C0.02 12.03 -1.96 9.06 -4 6 C-2 2 -2 2 0 0 Z " fill="#3E3932" transform="translate(193,35)"/>
<path d="M0 0 C1.125 3.75 1.125 3.75 0 6 C0.66 6.33 1.32 6.66 2 7 C-0.475 8.485 -0.475 8.485 -3 10 C-2.21302675 6.58978257 -1.12880057 3.31114834 0 0 Z " fill="#574F43" transform="translate(70,204)"/>
<path d="M0 0 C0.33 0 0.66 0 1 0 C1.33 3.3 1.66 6.6 2 10 C-1 7 -1 7 -2 4 C-1.34 4 -0.68 4 0 4 C0 2.68 0 1.36 0 0 Z " fill="#50493E" transform="translate(194,40)"/>
<path d="M0 0 C2.64 0.66 5.28 1.32 8 2 C8 2.33 8 2.66 8 3 C6.02 3 4.04 3 2 3 C1.67 4.32 1.34 5.64 1 7 C0.67 4.69 0.34 2.38 0 0 Z " fill="#4B453B" transform="translate(72,39)"/>
</svg>