<?xml version="1.0" encoding="UTF-8" standalone="no"?>
<!-- Created with Inkscape (http://www.inkscape.org/) -->

<svg
        version="1.1"
        id="svg2"
        width="647.38666"
        height="750.97333"
        viewBox="0 0 647.38666 750.97333"
        sodipodi:docname="EpicGames_Black_Solid_RGB.eps"
        xmlns:inkscape="http://www.inkscape.org/namespaces/inkscape"
        xmlns:sodipodi="http://sodipodi.sourceforge.net/DTD/sodipodi-0.dtd"
        xmlns="http://www.w3.org/2000/svg"
>
  <defs
     id="defs6" />
  <sodipodi:namedview
     id="namedview4"
     pagecolor="#ffffff"
     bordercolor="#000000"
     borderopacity="0.25"
     inkscape:showpageshadow="2"
     inkscape:pageopacity="0.0"
     inkscape:pagecheckerboard="0"
     inkscape:deskcolor="#d1d1d1" />
  <g
     id="g8"
     inkscape:groupmode="layer"
     inkscape:label="ink_ext_XXXXXX"
     transform="matrix(1.3333333,0,0,-1.3333333,0,750.97333)">
    <g
       id="g10"
       transform="scale(0.1)">
      <path
         d="M 4412.97,5632.34 H 440.777 C 118.82,5632.34 0,5513.52 0,5191.41 V 1304.65 c 0,-36.46 1.47266,-70.3 4.6875,-101.68 7.3359,-70.3 8.707,-138.44 74.1016,-216.021 6.3867,-7.59 73.1449,-57.269 73.1449,-57.269 35.914,-17.61 60.437,-30.578 100.933,-46.891 L 2208.83,63.3203 c 101.54,-46.5508 144,-64.69921 217.75,-63.2304562 V 0.078125 c 0.1,0 0.19,0 0.29,0 0.1,0 0.19,0 0.29,0 V 0.0898438 C 2500.91,-1.37891 2543.37,16.7695 2644.92,63.3203 L 4600.87,882.789 c 40.51,16.313 65.02,29.281 100.94,46.891 0,0 66.77,49.679 73.14,57.269 65.39,77.581 66.76,145.721 74.1,216.021 3.22,31.38 4.69,65.22 4.69,101.68 v 3886.76 c 0,322.11 -118.83,440.93 -440.77,440.93"
         style="fill:#2e2d2d;fill-opacity:1;fill-rule:evenodd;stroke:none"
         id="path12" />
      <path
         d="m 1046.22,3674.56 h 386.83 v 299.22 h -386.83 v 610.85 h 402.24 v 299.23 H 717.73 V 2724.35 h 736.84 v 299.22 h -408.35 v 650.99"
         style="fill:#ffffff;fill-opacity:1;fill-rule:nonzero;stroke:none"
         id="path14" />
      <path
         d="m 3816.97,3609.74 v -487.45 c 0,-86.38 -39.92,-126.46 -122.77,-126.46 h -61.43 c -85.96,0 -125.89,40.08 -125.89,126.46 v 1363.62 c 0,86.39 39.93,126.46 125.89,126.46 h 55.26 c 82.9,0 122.83,-40.07 122.83,-126.46 v -422.69 h 322.33 v 441.2 c 0,268.38 -128.95,397.96 -396,397.96 h -159.7 c -267.06,0 -399.11,-132.64 -399.11,-401.07 V 3106.89 c 0,-268.43 132.05,-401.06 399.11,-401.06 h 162.75 c 267.12,0 399.11,132.63 399.11,401.06 v 502.85 h -322.38"
         style="fill:#ffffff;fill-opacity:1;fill-rule:nonzero;stroke:none"
         id="path16" />
      <path
         d="m 2676.22,2724.35 h 328.55 V 4883.86 H 2676.22 V 2724.35"
         style="fill:#ffffff;fill-opacity:1;fill-rule:nonzero;stroke:none"
         id="path18" />
      <path
         d="m 2199.53,3924.42 c 0,-86.39 -39.87,-126.52 -122.77,-126.52 h -135.11 v 795.97 h 135.11 c 82.9,0 122.77,-40.1 122.77,-126.47 z m -70.61,959.44 H 1613.15 V 2724.35 h 328.5 v 783.61 h 187.27 c 267.12,0 399.11,132.63 399.11,401.01 v 573.83 c 0,268.43 -131.99,401.06 -399.11,401.06"
         style="fill:#ffffff;fill-opacity:1;fill-rule:nonzero;stroke:none"
         id="path20" />
      <path
         d="M 1492.7,771.711 H 3373.24 L 2413.39,455.18 1492.7,771.711 v 0"
         style="fill:#ffffff;fill-opacity:1;fill-rule:evenodd;stroke:none"
         id="path22" />
      <path
         d="m 4710.24,173.031 c 17.67,0 30.71,9.301 30.71,26.989 0,17.679 -13.04,26.05 -30.71,26.05 h -45.61 v -53.039 z m -73.53,80.028 h 73.53 c 36.29,0 57.69,-18.61 57.69,-50.258 0,-27.91 -15.82,-45.59 -39.08,-51.18 l 39.08,-52.1093 V 88.3398 h -26.05 l -43.74,59.5622 h -33.51 V 88.3398 h -27.92 z m 189.85,-82.829 c 0,75.391 -55.84,133.09 -126.57,133.09 -70.72,0 -126.56,-57.699 -126.56,-133.09 0,-75.3784 55.84,-133.0698 126.56,-133.0698 70.73,0 126.57,57.6914 126.57,133.0698 z m -281.98,0 c 0,91.211 68.87,160.071 155.41,160.071 86.55,0 155.42,-68.86 155.42,-160.071 0,-91.1987 -68.87,-160.0581 -155.42,-160.0581 -86.54,0 -155.41,68.8594 -155.41,160.0581"
         style="fill:#2e2d2d;fill-opacity:1;fill-rule:nonzero;stroke:none"
         id="path24" />
      <path
         d="m 1056.98,1531.74 c -50.94,0 -98,8.42 -141.164,25.24 -43.183,16.84 -80.593,40.22 -112.273,70.14 -31.68,29.92 -56.535,65.6 -74.543,107.06 -18.027,41.45 -27.02,86.8 -27.02,136.05 v 1.87 c 0,48 8.848,92.57 26.551,133.71 17.707,41.14 42.082,77.15 73.145,108 31.054,30.86 68.164,55.01 111.347,72.47 43.165,17.44 89.917,26.18 140.237,26.18 57.76,0 107.62,-8.42 149.55,-25.24 41.92,-16.84 80.27,-40.22 115.07,-70.14 l -106.22,-128.1 c -23.62,19.95 -47.69,35.21 -72.22,45.82 -24.54,10.59 -52.96,15.89 -85.25,15.89 -23.62,0 -45.51,-4.67 -65.698,-14.02 -20.183,-9.36 -37.734,-22.14 -52.637,-38.34 -14.91,-16.21 -26.718,-35.22 -35.41,-57.03 -8.711,-21.84 -13.047,-45.21 -13.047,-70.14 v -1.86 c 0,-26.18 4.336,-50.5 13.047,-72.94 8.692,-22.44 20.969,-41.6 36.809,-57.5 15.84,-15.9 34.473,-28.38 55.898,-37.4 21.438,-9.05 45.198,-13.57 71.288,-13.57 42.24,0 77.01,9.03 104.36,27.12 v 79.48 h -128.59 v 132.78 h 300.03 v -294.54 c -34.79,-28.69 -75.79,-52.69 -123,-72.01 -47.2,-19.3 -100.62,-28.98 -160.26,-28.98"
         style="fill:#ffffff;fill-opacity:1;fill-rule:nonzero;stroke:none"
         id="path26" />
      <path
         d="m 1833.77,1803.54 -72.68,186.07 -73.61,-186.07 z m -158.4,401.14 h 174.24 l 277.66,-659.22 h -193.81 l -47.52,116.88 h -251.57 l -46.59,-116.88 h -190.09 l 277.68,659.22"
         style="fill:#ffffff;fill-opacity:1;fill-rule:nonzero;stroke:none"
         id="path28" />
      <path
         d="m 2190.97,2199.94 h 191 l 155.62,-253.4 155.6,253.4 h 191.01 v -654.53 h -179.82 v 375.89 l -166.79,-256.2 h -3.73 L 2368,1919.43 v -374.02 h -177.03 v 654.53"
         style="fill:#ffffff;fill-opacity:1;fill-rule:nonzero;stroke:none"
         id="path30" />
      <path
         d="m 3005.01,2199.94 h 524.59 v -154.28 h -345.69 v -99.12 h 313.07 v -143.05 h -313.07 v -103.8 h 350.35 v -154.28 h -529.25 v 654.53"
         style="fill:#ffffff;fill-opacity:1;fill-rule:nonzero;stroke:none"
         id="path32" />
      <path
         d="m 3888.08,1533.61 c -58.39,0 -113.83,9.05 -166.32,27.11 -52.5,18.08 -98.93,45.2 -139.3,81.36 l 100.63,120.62 c 65.22,-52.37 135.72,-78.55 211.51,-78.55 24.23,0 42.71,3.89 55.44,11.69 12.73,7.79 19.1,18.85 19.1,33.19 v 1.88 c 0,6.85 -1.55,12.93 -4.66,18.23 -3.11,5.29 -8.84,10.43 -17.23,15.43 -8.39,4.98 -19.57,9.82 -33.55,14.49 -13.97,4.68 -32.14,9.5 -54.5,14.5 -34.8,8.09 -67.09,16.98 -96.9,26.65 -29.83,9.65 -55.77,22.11 -77.81,37.4 -22.06,15.26 -39.46,34.28 -52.18,57.04 -12.74,22.74 -19.11,50.96 -19.11,84.62 v 1.86 c 0,30.54 5.75,58.6 17.25,84.16 11.49,25.56 28.25,47.69 50.31,66.39 22.04,18.7 48.6,33.19 79.67,43.48 31.06,10.29 66.15,15.43 105.28,15.43 55.91,0 105.77,-7.34 149.56,-21.98 43.79,-14.64 83.39,-36.31 118.8,-64.98 l -90.39,-128.1 c -29.81,21.18 -60.41,37.24 -91.77,48.15 -31.38,10.9 -61.65,16.37 -90.85,16.37 -21.75,0 -38.06,-4.06 -48.92,-12.16 -10.87,-8.1 -16.31,-18.08 -16.31,-29.92 v -1.88 c 0,-7.48 1.71,-14.02 5.13,-19.62 3.41,-5.62 9.31,-10.76 17.7,-15.43 8.39,-4.68 19.88,-9.36 34.48,-14.03 14.59,-4.68 33.08,-9.51 55.45,-14.49 37.26,-8.12 70.95,-17.63 101.09,-28.53 30.12,-10.9 55.74,-24.16 76.87,-39.73 21.11,-15.6 37.27,-34.45 48.45,-56.57 11.18,-22.14 16.77,-48.48 16.77,-79.02 v -1.86 c 0,-33.66 -6.38,-63.59 -19.1,-89.77 -12.74,-26.18 -30.6,-48.48 -53.58,-66.85 -22.98,-18.4 -50.63,-32.43 -82.93,-42.08 -32.3,-9.66 -68.34,-14.5 -108.08,-14.5"
         style="fill:#ffffff;fill-opacity:1;fill-rule:nonzero;stroke:none"
         id="path34" />
    </g>
  </g>
</svg>
